<?xml version="1.0"?>
<svg xmlns="http://www.w3.org/2000/svg" xmlns:xlink="http://www.w3.org/1999/xlink" version="1.1" id="Capa_1" x="0px" y="0px" viewBox="0 0 481.831 481.831" style="enable-background:new 0 0 481.831 481.831;" xml:space="preserve" width="512px" height="512px"><g><g>
	<g>
		<g>
			<polygon points="288.177,103.764 288.177,103.764 288.177,103.764    " data-original="#000000" class="active-path" data-old_color="#000000" fill="#BFCADA"/>
			<path d="M293.833,90.108c-45.33-44.936-114.729-54.911-170.88-24.56c-3.879,2.116-5.308,6.977-3.192,10.856     c2.116,3.879,6.977,5.308,10.856,3.192c49.912-26.994,111.611-18.129,151.904,21.824c1.496,1.506,3.533,2.35,5.656,2.344     c2.121,0,4.154-0.843,5.654-2.342C296.956,98.298,296.956,93.233,293.833,90.108z" data-original="#000000" class="active-path" data-old_color="#000000" fill="#BFCADA"/>
		</g>
	</g>
</g><g>
	<g>
		<path d="M109.817,83.252c-2.872-3.358-7.922-3.752-11.28-0.88c-2.864,2.448-5.651,5.024-8.36,7.728    c-1.508,1.504-2.354,3.548-2.35,5.678c0.008,4.418,3.596,7.994,8.014,7.986c2.124,0.004,4.161-0.843,5.656-2.352    c2.416-2.411,4.896-4.704,7.44-6.88C112.294,91.66,112.688,86.61,109.817,83.252z" data-original="#000000" class="active-path" data-old_color="#000000" fill="#BFCADA"/>
	</g>
</g><g>
	<g>
		<path d="M479.489,422.924l0.024-0.024L352.929,296.34c57.641-88.935,32.272-207.759-56.664-265.4    C207.33-26.702,88.506-1.333,30.865,87.603C10.726,118.676,0.007,154.912,0.001,191.94    c-0.262,105.848,85.333,191.868,191.181,192.13c37.379,0.092,73.97-10.748,105.267-31.186l126.528,126.552    c3.124,3.123,8.188,3.123,11.312,0l45.2-45.2C482.612,431.112,482.612,426.048,479.489,422.924z M292.929,336.116    c-69.909,49.149-165.056,40.806-225.344-19.76C-1.153,247.629-1.161,136.192,67.566,67.454s180.164-68.745,248.902-0.018    c60.405,60.396,68.722,155.446,19.725,225.416C324.387,309.671,309.748,324.31,292.929,336.116z M428.657,462.468L309.753,343.564    c1.288-1,2.504-2.088,3.768-3.12c1.08-0.888,2.16-1.768,3.2-2.68c3.792-3.248,7.504-6.584,11.008-10.088    c3.504-3.504,6.84-7.2,10.088-11.008c0.912-1.064,1.792-2.144,2.68-3.2c1.032-1.264,2.12-2.48,3.12-3.768l118.928,118.88    L428.657,462.468z" data-original="#000000" class="active-path" data-old_color="#000000" fill="#BFCADA"/>
	</g>
</g></g> </svg>
